<svg aria-hidden="true" style="position:absolute;width:0;height:0" xmlns="http://www.w3.org/2000/svg" overflow="hidden">
  <defs>
    <symbol id="icon-triangl" viewBox="0 0 32 32">
      <path d="M16 28.8L2.144 4.8h27.713l-13.856 24z"/>
    </symbol>
    <symbol id="icon-fb" viewBox="0 0 30 32">
      <path fill="var(--color1, #d7b399)" d="M24.071.914H5.785A5.487 5.487 0 00.299 6.4v18.286a5.487 5.487 0 005.486 5.486h10.133V18.839h-3.809V14.42h3.809v-3.257c0-3.771 2.324-5.829 5.695-5.829 1.6 0 2.991.114 3.39.171v3.943l-2.324.019c-1.848 0-2.191.857-2.191 2.133v2.819h4.362l-.572 4.419h-3.791v11.333h3.581a5.488 5.488 0 005.486-5.486V6.399A5.487 5.487 0 0024.068.913z"/>
    </symbol>
    <symbol id="icon-insta" viewBox="0 0 30 32">
      <path fill="var(--color1, #d7b399)" d="M19.805 15.543c0 2.686-2.19 4.876-4.876 4.876s-4.876-2.191-4.876-4.876c0-2.686 2.191-4.876 4.876-4.876s4.876 2.191 4.876 4.876zm2.628 0c0-4.152-3.352-7.505-7.505-7.505s-7.505 3.352-7.505 7.505c0 4.152 3.352 7.505 7.505 7.505s7.505-3.352 7.505-7.505zm2.057-7.81c0-.971-.781-1.752-1.752-1.752s-1.752.781-1.752 1.752.781 1.752 1.752 1.752 1.752-.781 1.752-1.752zm-9.561-4.19c2.133 0 6.705-.171 8.629.591.667.267 1.162.59 1.676 1.105s.838 1.01 1.105 1.676c.762 1.924.59 6.495.59 8.629s.171 6.705-.59 8.629c-.267.667-.59 1.162-1.105 1.676s-1.009.838-1.676 1.105c-1.924.762-6.495.59-8.629.59s-6.705.172-8.629-.59c-.667-.267-1.162-.59-1.676-1.105s-.838-1.009-1.105-1.676c-.762-1.924-.59-6.495-.59-8.629s-.171-6.705.59-8.629c.267-.667.59-1.162 1.105-1.676s1.01-.838 1.676-1.105c1.924-.762 6.495-.591 8.629-.591zm14.628 12c0-2.019.019-4.019-.095-6.038-.114-2.343-.648-4.419-2.362-6.133s-3.791-2.248-6.133-2.362C18.948.896 16.948.915 14.929.915S10.91.896 8.891 1.01c-2.343.114-4.419.648-6.133 2.362S.51 7.162.396 9.505c-.114 2.019-.095 4.019-.095 6.038s-.019 4.019.095 6.038c.114 2.343.648 4.419 2.362 6.133s3.79 2.247 6.133 2.362c2.019.114 4.019.095 6.038.095s4.019.019 6.038-.095c2.343-.114 4.419-.648 6.133-2.362s2.248-3.791 2.362-6.133c.114-2.019.095-4.019.095-6.038z"/>
    </symbol>
    <symbol id="icon-logo" viewBox="0 0 32 32">
      <path fill="var(--color1, #d7b399)" d="M7.471 11.779l-4.213 4.213 4.213 4.213 4.213-4.213-4.213-4.213zM15.996 3.268l-4.213 4.213 4.213 4.213 4.213-4.213-4.213-4.213zM15.993 20.315l-4.213 4.213 4.213 4.213 4.213-4.213-4.213-4.213zM24.518 11.781l-4.213 4.213 4.213 4.213 4.213-4.213-4.213-4.213z"/>
      <path fill="var(--color1, #d7b399)" d="M22.888 10.149l-4.213 4.213 1.631 1.631 4.213-4.213-1.631-1.631zM14.364 18.683l-4.213 4.213 1.631 1.631 4.213-4.213-1.631-1.631zM20.207 7.482l-4.213 4.213 1.631 1.631 4.213-4.213-1.631-1.631zM11.694 16.004l-4.213 4.213 1.631 1.631 4.213-4.213-1.631-1.631zM9.103 10.149L7.472 11.78l4.213 4.213 1.631-1.631-4.213-4.213zM11.782 7.48l-1.631 1.631 4.213 4.213 1.631-1.631-4.213-4.213zM20.304 15.992l-1.631 1.631 4.213 4.213 1.631-1.631-4.213-4.213zM17.637 18.674l-1.631 1.631 4.213 4.213 1.631-1.631-4.213-4.213zM21.842 26.158l-1.627-1.627-4.216 4.216-4.216-4.216-1.627 1.627L15.998 32l5.842-5.842zM7.469 11.784l-1.627-1.627L0 15.999l5.842 5.842 1.627-1.627-4.216-4.216 4.216-4.216zM26.158 10.158l-1.627 1.627 4.216 4.216-4.216 4.216 1.627 1.627L32 16.002l-5.842-5.842zM20.216 7.469l1.627-1.627L16.001 0l-5.842 5.842 1.627 1.627 4.216-4.216 4.216 4.216z"/>
    </symbol>
    <symbol id="icon-vk" viewBox="0 0 52 32">
      <path fill="var(--color1, #d7b399)" d="M51.042 2.701s-.364-1.039-2.623-.753L40.938 2c-.571-.078-.987.156-.987.156s-.442.234-.65.805c-1.221 3.143-2.779 5.844-2.779 5.844-3.325 5.662-4.675 5.974-5.221 5.61-1.273-.805-.935-3.273-.935-5.039 0-5.506.831-7.792-1.636-8.39-.805-.182-1.403-.312-3.506-.338-2.675-.026-4.935 0-6.208.623-.857.416-1.506 1.351-1.117 1.403.494.078 1.61.312 2.208 1.117 0 0 .649 1.065.753 3.403.286 6.468-1.039 7.273-1.039 7.273-1.013.545-2.779-.364-5.377-5.714 0 0-1.506-2.649-2.675-5.558-.208-.545-.623-.831-.623-.831s-.468-.364-1.143-.468l-7.117.052c-1.091 0-1.481.493-1.481.493s-.39.416-.026 1.273c5.558 13.065 11.896 19.61 11.896 19.61s5.792 6.052 12.364 5.636h2.987c.909-.078 1.377-.571 1.377-.571s.416-.468.39-1.325c-.052-4 1.818-4.597 1.818-4.597 1.818-.571 4.156 3.87 6.65 5.584 0 0 1.896 1.299 3.325 1.013l6.649-.104c3.507-.026 1.844-2.935 1.844-2.935-.13-.234-.961-2.026-4.961-5.74-4.156-3.87-3.61-3.247 1.429-9.948 3.065-4.078 4.286-6.571 3.896-7.636z"/>
    </symbol>
    <symbol id="icon-basket" viewBox="0 0 30 30">
      <path fill="#212121" d="M22.2936 11.4909L16.2385 2.40831C15.9632 2.13308 15.5505 1.85785 15.1376 1.85785C14.7248 1.85785 14.3119 1.99546 14.0367 2.40831L7.98165 11.4909H1.37615C0.550459 11.4909 0 12.0413 0 12.867C0 13.0046 0 13.1423 0 13.2799L3.44037 26.078C3.7156 27.179 4.81651 28.1423 6.05505 28.1423H23.945C25.1835 28.1423 26.2844 27.3166 26.5596 26.078L30 13.2799C30 13.1423 30 13.0046 30 12.867C30 12.0413 29.4495 11.4909 28.6239 11.4909H22.2936ZM11.0092 11.4909L15.1376 5.43583L19.2661 11.4909H11.0092ZM15.1376 22.5001C13.6239 22.5001 12.3853 21.2615 12.3853 19.7478C12.3853 18.234 13.6239 16.9955 15.1376 16.9955C16.6514 16.9955 17.8899 18.234 17.8899 19.7478C17.8899 21.2615 16.6514 22.5001 15.1376 22.5001Z"/>
    </symbol>            
  </defs>
</svg>
